<mxfile host="65bd71144e" pages="2">
    <diagram id="Z94RLhPxU36F0JbX2Kmo" name="Page-1">
        <mxGraphModel dx="820" dy="478" grid="1" gridSize="10" guides="1" tooltips="1" connect="1" arrows="1" fold="1" page="1" pageScale="1" pageWidth="1169" pageHeight="827" math="0" shadow="0">
            <root>
                <mxCell id="0"/>
                <mxCell id="1" parent="0"/>
                <mxCell id="3xquVJFaSn-gZLJKh9fl-9" value="" style="edgeStyle=orthogonalEdgeStyle;rounded=0;orthogonalLoop=1;jettySize=auto;html=1;" parent="1" source="3xquVJFaSn-gZLJKh9fl-1" target="3xquVJFaSn-gZLJKh9fl-8" edge="1">
                    <mxGeometry relative="1" as="geometry"/>
                </mxCell>
                <mxCell id="3xquVJFaSn-gZLJKh9fl-11" value="" style="edgeStyle=orthogonalEdgeStyle;rounded=0;orthogonalLoop=1;jettySize=auto;html=1;" parent="1" source="3xquVJFaSn-gZLJKh9fl-1" target="3xquVJFaSn-gZLJKh9fl-6" edge="1">
                    <mxGeometry relative="1" as="geometry"/>
                </mxCell>
                <mxCell id="3xquVJFaSn-gZLJKh9fl-13" value="" style="edgeStyle=orthogonalEdgeStyle;rounded=0;orthogonalLoop=1;jettySize=auto;html=1;" parent="1" source="3xquVJFaSn-gZLJKh9fl-1" target="3xquVJFaSn-gZLJKh9fl-12" edge="1">
                    <mxGeometry relative="1" as="geometry"/>
                </mxCell>
                <mxCell id="3xquVJFaSn-gZLJKh9fl-15" value="" style="edgeStyle=orthogonalEdgeStyle;rounded=0;orthogonalLoop=1;jettySize=auto;html=1;" parent="1" source="3xquVJFaSn-gZLJKh9fl-1" target="3xquVJFaSn-gZLJKh9fl-14" edge="1">
                    <mxGeometry relative="1" as="geometry"/>
                </mxCell>
                <mxCell id="3xquVJFaSn-gZLJKh9fl-18" style="edgeStyle=orthogonalEdgeStyle;rounded=0;orthogonalLoop=1;jettySize=auto;html=1;exitX=1;exitY=1;exitDx=0;exitDy=0;entryX=0;entryY=0;entryDx=0;entryDy=0;" parent="1" source="3xquVJFaSn-gZLJKh9fl-1" target="3xquVJFaSn-gZLJKh9fl-16" edge="1">
                    <mxGeometry relative="1" as="geometry"/>
                </mxCell>
                <mxCell id="3xquVJFaSn-gZLJKh9fl-1" value="Selección de modo" style="ellipse;whiteSpace=wrap;html=1;" parent="1" vertex="1">
                    <mxGeometry x="525" y="360" width="120" height="80" as="geometry"/>
                </mxCell>
                <mxCell id="3xquVJFaSn-gZLJKh9fl-4" value="" style="endArrow=classic;html=1;" parent="1" edge="1">
                    <mxGeometry width="50" height="50" relative="1" as="geometry">
                        <mxPoint x="505" y="230" as="sourcePoint"/>
                        <mxPoint x="545" y="260" as="targetPoint"/>
                        <Array as="points">
                            <mxPoint x="535" y="240"/>
                        </Array>
                    </mxGeometry>
                </mxCell>
                <mxCell id="3xquVJFaSn-gZLJKh9fl-5" value="reset" style="text;html=1;strokeColor=none;fillColor=none;align=center;verticalAlign=middle;whiteSpace=wrap;rounded=0;" parent="1" vertex="1">
                    <mxGeometry x="465" y="210" width="40" height="20" as="geometry"/>
                </mxCell>
                <mxCell id="3xquVJFaSn-gZLJKh9fl-6" value="CDR_Automático_MEF" style="ellipse;whiteSpace=wrap;html=1;" parent="1" vertex="1">
                    <mxGeometry x="525" y="470" width="120" height="80" as="geometry"/>
                </mxCell>
                <mxCell id="3xquVJFaSn-gZLJKh9fl-8" value="Configuración_MEF" style="ellipse;whiteSpace=wrap;html=1;" parent="1" vertex="1">
                    <mxGeometry x="685" y="360" width="120" height="80" as="geometry"/>
                </mxCell>
                <mxCell id="3xquVJFaSn-gZLJKh9fl-12" value="inicialización&lt;br&gt;setup" style="ellipse;whiteSpace=wrap;html=1;" parent="1" vertex="1">
                    <mxGeometry x="525" y="250" width="120" height="80" as="geometry"/>
                </mxCell>
                <mxCell id="3xquVJFaSn-gZLJKh9fl-14" value="Manual_MEF" style="ellipse;whiteSpace=wrap;html=1;" parent="1" vertex="1">
                    <mxGeometry x="355" y="360" width="120" height="80" as="geometry"/>
                </mxCell>
                <mxCell id="3xquVJFaSn-gZLJKh9fl-16" value="Información" style="rounded=1;whiteSpace=wrap;html=1;" parent="1" vertex="1">
                    <mxGeometry x="695" y="470" width="120" height="60" as="geometry"/>
                </mxCell>
                <mxCell id="3xquVJFaSn-gZLJKh9fl-22" value="Text" style="text;html=1;strokeColor=none;fillColor=none;align=center;verticalAlign=middle;whiteSpace=wrap;rounded=0;" parent="1" vertex="1">
                    <mxGeometry x="480" y="260" width="40" height="20" as="geometry"/>
                </mxCell>
                <mxCell id="3xquVJFaSn-gZLJKh9fl-23" value="&lt;font style=&quot;font-size: 43px&quot;&gt;Estructura principal&lt;/font&gt;" style="text;html=1;align=center;verticalAlign=middle;resizable=0;points=[];autosize=1;strokeColor=none;fillColor=none;" parent="1" vertex="1">
                    <mxGeometry x="395" y="130" width="380" height="30" as="geometry"/>
                </mxCell>
            </root>
        </mxGraphModel>
    </diagram>
    <diagram id="2yHrIm8f3ps8T4j3jmnp" name="Page-2">
        <mxGraphModel dx="820" dy="478" grid="1" gridSize="10" guides="1" tooltips="1" connect="1" arrows="1" fold="1" page="1" pageScale="1" pageWidth="1169" pageHeight="827" math="0" shadow="0">
            <root>
                <mxCell id="VG5reM1JGWSKIXkfuv2--0"/>
                <mxCell id="VG5reM1JGWSKIXkfuv2--1" parent="VG5reM1JGWSKIXkfuv2--0"/>
                <mxCell id="IKDUR3-SzPnZCtvIDeNq-2" value="" style="edgeStyle=orthogonalEdgeStyle;rounded=0;orthogonalLoop=1;jettySize=auto;html=1;" parent="VG5reM1JGWSKIXkfuv2--1" source="IKDUR3-SzPnZCtvIDeNq-0" target="IKDUR3-SzPnZCtvIDeNq-1" edge="1">
                    <mxGeometry relative="1" as="geometry"/>
                </mxCell>
                <mxCell id="IKDUR3-SzPnZCtvIDeNq-0" value="INICIO&lt;br&gt;" style="ellipse;whiteSpace=wrap;html=1;" parent="VG5reM1JGWSKIXkfuv2--1" vertex="1">
                    <mxGeometry x="550" y="80" width="120" height="80" as="geometry"/>
                </mxCell>
                <mxCell id="OKmjE9kdb7iJSz0pzcYx-2" value="" style="edgeStyle=orthogonalEdgeStyle;rounded=0;orthogonalLoop=1;jettySize=auto;html=1;" parent="VG5reM1JGWSKIXkfuv2--1" source="IKDUR3-SzPnZCtvIDeNq-1" target="OKmjE9kdb7iJSz0pzcYx-1" edge="1">
                    <mxGeometry relative="1" as="geometry"/>
                </mxCell>
                <mxCell id="OKmjE9kdb7iJSz0pzcYx-10" value="" style="edgeStyle=orthogonalEdgeStyle;rounded=0;orthogonalLoop=1;jettySize=auto;html=1;" parent="VG5reM1JGWSKIXkfuv2--1" source="IKDUR3-SzPnZCtvIDeNq-1" target="OKmjE9kdb7iJSz0pzcYx-9" edge="1">
                    <mxGeometry relative="1" as="geometry"/>
                </mxCell>
                <mxCell id="IKDUR3-SzPnZCtvIDeNq-1" value="Sensor_Suelo" style="ellipse;whiteSpace=wrap;html=1;" parent="VG5reM1JGWSKIXkfuv2--1" vertex="1">
                    <mxGeometry x="550" y="240" width="120" height="80" as="geometry"/>
                </mxCell>
                <mxCell id="IKDUR3-SzPnZCtvIDeNq-3" value="lcd: &quot;automático&quot;/&lt;br&gt;lectura sensor de suelo y promedio" style="text;html=1;strokeColor=none;fillColor=none;align=center;verticalAlign=middle;whiteSpace=wrap;rounded=0;" parent="VG5reM1JGWSKIXkfuv2--1" vertex="1">
                    <mxGeometry x="620" y="160" width="160" height="40" as="geometry"/>
                </mxCell>
                <mxCell id="OKmjE9kdb7iJSz0pzcYx-0" value="CDR_Automático_MEF" style="text;html=1;strokeColor=none;fillColor=none;align=center;verticalAlign=middle;whiteSpace=wrap;rounded=0;" parent="VG5reM1JGWSKIXkfuv2--1" vertex="1">
                    <mxGeometry x="585" y="20" width="40" height="20" as="geometry"/>
                </mxCell>
                <mxCell id="OKmjE9kdb7iJSz0pzcYx-11" style="edgeStyle=orthogonalEdgeStyle;rounded=0;orthogonalLoop=1;jettySize=auto;html=1;exitX=0.5;exitY=1;exitDx=0;exitDy=0;entryX=1;entryY=0.5;entryDx=0;entryDy=0;" parent="VG5reM1JGWSKIXkfuv2--1" source="OKmjE9kdb7iJSz0pzcYx-1" target="OKmjE9kdb7iJSz0pzcYx-9" edge="1">
                    <mxGeometry relative="1" as="geometry"/>
                </mxCell>
                <mxCell id="OKmjE9kdb7iJSz0pzcYx-12" style="edgeStyle=orthogonalEdgeStyle;rounded=0;orthogonalLoop=1;jettySize=auto;html=1;exitX=1;exitY=0.5;exitDx=0;exitDy=0;" parent="VG5reM1JGWSKIXkfuv2--1" source="OKmjE9kdb7iJSz0pzcYx-1" edge="1">
                    <mxGeometry relative="1" as="geometry">
                        <mxPoint x="930" y="450" as="targetPoint"/>
                        <Array as="points">
                            <mxPoint x="1010" y="280"/>
                            <mxPoint x="1010" y="450"/>
                        </Array>
                    </mxGeometry>
                </mxCell>
                <mxCell id="OKmjE9kdb7iJSz0pzcYx-1" value="Riego" style="ellipse;whiteSpace=wrap;html=1;" parent="VG5reM1JGWSKIXkfuv2--1" vertex="1">
                    <mxGeometry x="870" y="240" width="120" height="80" as="geometry"/>
                </mxCell>
                <mxCell id="OKmjE9kdb7iJSz0pzcYx-3" value="Sensor_suelo_muestras ==10/&lt;br&gt;Sensor_suelo_promedio" style="text;html=1;strokeColor=none;fillColor=none;align=center;verticalAlign=middle;whiteSpace=wrap;rounded=0;" parent="VG5reM1JGWSKIXkfuv2--1" vertex="1">
                    <mxGeometry x="670" y="240" width="190" height="20" as="geometry"/>
                </mxCell>
                <mxCell id="OKmjE9kdb7iJSz0pzcYx-6" value="promedio&amp;lt;= referencia/&lt;br&gt;Señal_encender bomba" style="text;html=1;strokeColor=none;fillColor=none;align=center;verticalAlign=middle;whiteSpace=wrap;rounded=0;" parent="VG5reM1JGWSKIXkfuv2--1" vertex="1">
                    <mxGeometry x="1019" y="350" width="150" height="60" as="geometry"/>
                </mxCell>
                <mxCell id="OKmjE9kdb7iJSz0pzcYx-8" value="&lt;br&gt;&lt;br&gt;&lt;span style=&quot;color: rgb(0 , 0 , 0) ; font-family: &amp;#34;helvetica&amp;#34; ; font-size: 12px ; font-style: normal ; font-weight: 400 ; letter-spacing: normal ; text-align: center ; text-indent: 0px ; text-transform: none ; word-spacing: 0px ; background-color: rgb(248 , 249 , 250) ; display: inline ; float: none&quot;&gt;promedio&amp;gt;= referencia*1.05 /&lt;/span&gt;&lt;br style=&quot;color: rgb(0 , 0 , 0) ; font-family: &amp;#34;helvetica&amp;#34; ; font-size: 12px ; font-style: normal ; font-weight: 400 ; letter-spacing: normal ; text-align: center ; text-indent: 0px ; text-transform: none ; word-spacing: 0px ; background-color: rgb(248 , 249 , 250)&quot;&gt;&lt;span style=&quot;color: rgb(0 , 0 , 0) ; font-family: &amp;#34;helvetica&amp;#34; ; font-size: 12px ; font-style: normal ; font-weight: 400 ; letter-spacing: normal ; text-align: center ; text-indent: 0px ; text-transform: none ; word-spacing: 0px ; background-color: rgb(248 , 249 , 250) ; display: inline ; float: none&quot;&gt;Señal_apagar bomba&lt;/span&gt;&lt;br&gt;" style="text;html=1;strokeColor=none;fillColor=none;align=center;verticalAlign=middle;whiteSpace=wrap;rounded=0;" parent="VG5reM1JGWSKIXkfuv2--1" vertex="1">
                    <mxGeometry x="760" y="330" width="170" height="40" as="geometry"/>
                </mxCell>
                <mxCell id="OKmjE9kdb7iJSz0pzcYx-18" style="edgeStyle=orthogonalEdgeStyle;rounded=0;orthogonalLoop=1;jettySize=auto;html=1;exitX=1;exitY=1;exitDx=0;exitDy=0;" parent="VG5reM1JGWSKIXkfuv2--1" source="OKmjE9kdb7iJSz0pzcYx-9" target="OKmjE9kdb7iJSz0pzcYx-17" edge="1">
                    <mxGeometry relative="1" as="geometry">
                        <Array as="points">
                            <mxPoint x="652" y="540"/>
                            <mxPoint x="940" y="540"/>
                        </Array>
                    </mxGeometry>
                </mxCell>
                <mxCell id="OKmjE9kdb7iJSz0pzcYx-9" value="Sensor_DHT11" style="ellipse;whiteSpace=wrap;html=1;" parent="VG5reM1JGWSKIXkfuv2--1" vertex="1">
                    <mxGeometry x="550" y="410" width="120" height="80" as="geometry"/>
                </mxCell>
                <mxCell id="OKmjE9kdb7iJSz0pzcYx-13" value="Text" style="text;html=1;strokeColor=none;fillColor=none;align=center;verticalAlign=middle;whiteSpace=wrap;rounded=0;" parent="VG5reM1JGWSKIXkfuv2--1" vertex="1">
                    <mxGeometry x="780" y="370" width="40" height="20" as="geometry"/>
                </mxCell>
                <mxCell id="OKmjE9kdb7iJSz0pzcYx-14" value="Sensor_suelo_Muestras&amp;lt;10" style="text;html=1;align=center;verticalAlign=middle;resizable=0;points=[];autosize=1;strokeColor=none;fillColor=none;" parent="VG5reM1JGWSKIXkfuv2--1" vertex="1">
                    <mxGeometry x="425" y="340" width="170" height="20" as="geometry"/>
                </mxCell>
                <mxCell id="OKmjE9kdb7iJSz0pzcYx-15" value="Sensor_DHT_muestras_temp ==10 &amp;amp;&amp;amp;Sensor_DHT_muestras_hum ==10&lt;br&gt;/&lt;br&gt;Sensor_DHT_prom_temp&amp;nbsp;&lt;br&gt;Sensor_DHT_prom_hum&amp;nbsp;" style="text;html=1;strokeColor=none;fillColor=none;align=center;verticalAlign=middle;whiteSpace=wrap;rounded=0;" parent="VG5reM1JGWSKIXkfuv2--1" vertex="1">
                    <mxGeometry x="680" y="460" width="260" height="80" as="geometry"/>
                </mxCell>
                <mxCell id="OKmjE9kdb7iJSz0pzcYx-17" value="Ventiralción" style="ellipse;whiteSpace=wrap;html=1;" parent="VG5reM1JGWSKIXkfuv2--1" vertex="1">
                    <mxGeometry x="880" y="580" width="120" height="80" as="geometry"/>
                </mxCell>
                <mxCell id="OKmjE9kdb7iJSz0pzcYx-19" value="promedio&amp;lt;= referencia/&lt;br&gt;Señal_encender FAN" style="text;html=1;strokeColor=none;fillColor=none;align=center;verticalAlign=middle;whiteSpace=wrap;rounded=0;" parent="VG5reM1JGWSKIXkfuv2--1" vertex="1">
                    <mxGeometry x="1019" y="550" width="150" height="60" as="geometry"/>
                </mxCell>
                <mxCell id="OKmjE9kdb7iJSz0pzcYx-20" value="promedio&amp;lt;= referencia/&lt;br&gt;Señal_apagar FAN" style="text;html=1;strokeColor=none;fillColor=none;align=center;verticalAlign=middle;whiteSpace=wrap;rounded=0;" parent="VG5reM1JGWSKIXkfuv2--1" vertex="1">
                    <mxGeometry x="710" y="600" width="150" height="60" as="geometry"/>
                </mxCell>
            </root>
        </mxGraphModel>
    </diagram>
</mxfile>